<?xml version="1.0" ?><!DOCTYPE svg  PUBLIC '-//W3C//DTD SVG 1.1//EN'  'http://www.w3.org/Graphics/SVG/1.1/DTD/svg11.dtd'><svg height="1000pt" version="1.1" viewBox="0 0 1000 1000" width="1000pt" xmlns="http://www.w3.org/2000/svg"><path d=" M 451.75 13.72 C 470.36 10.97 489.22 10.76 508.00 10.57 C 544.49 10.17 580.83 15.89 616.07 25.05 C 622.28 26.89 628.38 29.17 634.78 30.29 C 640.66 31.70 643.15 39.32 640.30 44.35 C 637.47 49.83 633.80 54.86 631.59 60.66 C 622.90 79.42 618.46 100.23 619.82 120.92 C 621.54 152.66 636.06 183.15 658.53 205.46 C 673.70 220.48 692.12 232.24 712.09 239.80 C 731.15 247.17 751.64 250.31 772.03 250.11 C 791.48 249.71 811.10 246.69 829.08 239.04 C 834.90 236.56 842.38 240.50 843.06 246.89 C 842.15 258.56 842.70 270.29 842.54 281.99 C 842.55 393.98 842.54 505.98 842.56 617.98 C 842.44 625.63 843.11 633.36 841.40 640.89 C 838.08 673.73 821.33 704.90 795.98 725.98 C 777.91 741.20 755.79 751.68 732.48 755.66 C 726.28 756.18 720.20 758.02 713.94 757.60 C 700.95 757.75 687.94 757.15 674.98 758.11 C 643.73 758.12 612.49 758.09 581.24 758.12 C 581.23 816.06 581.22 874.01 581.25 931.95 C 581.20 934.09 581.13 936.30 580.39 938.36 C 574.94 953.44 566.21 967.54 554.09 978.16 C 543.10 987.73 529.46 994.67 514.88 996.35 C 499.58 998.49 483.58 995.51 470.17 987.80 C 451.04 977.06 436.94 958.55 429.99 937.89 C 428.97 934.20 426.03 931.07 426.40 927.05 C 426.44 870.61 426.38 814.16 426.42 757.71 C 423.29 757.25 420.13 757.30 416.98 757.35 C 385.65 757.35 354.32 757.34 322.98 757.35 C 315.33 757.51 307.65 756.90 300.04 757.91 C 271.04 757.70 242.28 747.41 219.44 729.57 C 194.80 710.68 177.24 682.69 171.49 652.13 C 170.96 648.72 169.65 645.48 169.38 642.03 C 169.55 509.06 169.40 376.07 169.46 243.08 C 169.57 239.03 169.00 234.91 170.00 230.93 C 182.65 179.77 213.23 134.09 252.76 99.68 C 266.26 88.36 280.03 77.20 295.23 68.20 C 317.64 53.92 341.93 42.75 366.96 33.89 C 394.27 23.74 422.93 17.63 451.75 13.72 M 414.40 40.63 C 400.90 43.94 387.39 47.38 374.41 52.42 C 338.80 64.85 304.84 82.66 275.63 106.66 C 237.42 136.85 206.88 177.78 192.48 224.59 C 191.10 229.28 189.38 233.99 189.37 238.94 C 189.41 369.29 189.38 499.64 189.39 629.99 C 189.35 638.77 190.46 647.56 192.82 656.02 C 202.09 690.88 229.92 719.74 263.89 731.42 C 274.20 735.05 285.05 737.70 296.05 737.34 C 337.71 737.48 379.37 737.39 421.03 737.40 C 427.35 737.18 433.68 737.13 440.01 737.55 C 486.00 737.58 531.99 737.59 577.98 737.54 C 581.69 737.40 585.34 738.21 589.05 738.19 C 611.36 738.14 633.67 738.19 655.98 738.17 C 662.99 738.10 670.02 738.42 677.01 737.69 C 689.33 737.57 701.65 737.68 713.96 737.68 C 736.31 736.58 758.61 729.32 776.48 715.68 C 794.23 703.37 807.81 685.31 815.40 665.14 C 819.70 653.90 821.55 641.92 822.61 630.00 C 822.60 507.52 822.63 385.04 822.60 262.56 C 811.99 265.78 801.06 267.99 790.02 268.98 C 765.54 271.42 740.44 269.72 716.86 262.45 C 683.15 252.39 652.36 232.00 630.81 204.10 C 609.01 175.85 597.41 139.69 600.01 103.99 C 601.56 83.88 606.55 63.76 616.40 46.06 C 608.77 43.41 600.87 41.72 592.99 40.03 C 576.85 36.58 560.58 33.53 544.10 32.20 C 524.50 29.90 504.71 30.36 485.02 30.97 C 461.20 31.54 437.63 35.60 414.40 40.63 M 446.40 925.09 C 449.28 932.74 452.03 940.61 456.51 947.56 C 466.24 963.34 482.95 975.97 501.93 976.95 C 518.41 978.31 534.69 970.65 545.61 958.52 C 552.39 951.21 557.67 942.44 560.93 933.04 C 561.74 919.71 561.06 906.29 561.29 892.93 C 561.28 847.79 561.31 802.66 561.28 757.52 C 533.52 757.50 505.76 757.51 478.01 757.51 C 477.95 780.03 478.01 802.55 477.97 825.07 C 478.21 831.41 471.29 836.54 465.29 834.57 C 461.14 833.45 457.97 829.39 458.07 825.07 C 458.04 802.56 458.08 780.03 458.04 757.52 C 454.15 757.52 450.27 757.51 446.39 757.47 C 446.34 813.35 446.30 869.22 446.40 925.09 Z" fill="#000000" opacity="1.00"/><path d=" M 465.37 850.57 C 471.13 848.29 478.22 852.78 478.56 858.97 C 478.73 866.65 478.65 874.34 478.58 882.02 C 478.48 887.71 472.59 892.33 467.04 891.22 C 462.57 890.55 458.81 886.50 458.74 881.95 C 458.63 874.64 458.68 867.32 458.70 860.02 C 458.57 855.84 461.44 851.89 465.37 850.57 Z" fill="#000000" opacity="1.00"/></svg>