<?xml version="1.0" encoding="UTF-8" standalone="no"?>
<!DOCTYPE svg PUBLIC "-//W3C//DTD SVG 20010904//EN"
              "http://www.w3.org/TR/2001/REC-SVG-20010904/DTD/svg10.dtd">

<svg xmlns="http://www.w3.org/2000/svg"
     width="7.11111in" height="7.11111in"
     viewBox="0 0 512 512">
  <path id="Zaznaczenie"
        fill="#000000" stroke="black" stroke-width="1"
        d="M 375.00,85.00
           C 375.00,85.00 375.00,172.00 375.00,172.00
             375.00,186.34 372.79,201.02 382.38,213.00
             388.55,220.71 398.07,226.04 408.00,226.69
             408.00,226.69 414.00,226.69 414.00,226.69
             414.00,226.69 426.00,226.69 426.00,226.69
             426.00,226.69 426.00,427.00 426.00,427.00
             426.01,433.74 425.51,435.86 433.00,436.00
             442.52,436.17 443.86,436.15 444.00,429.00
             444.00,429.00 444.00,387.00 444.00,387.00
             444.00,387.00 444.00,226.81 444.00,226.81
             444.00,226.81 452.00,226.81 452.00,226.81
             452.00,226.81 460.00,226.81 460.00,226.81
             468.60,226.91 477.82,222.83 483.96,216.91
             498.20,203.17 495.00,190.85 495.00,173.00
             495.00,173.00 495.00,85.00 495.00,85.00
             495.00,85.00 477.22,85.00 477.22,85.00
             477.22,85.00 477.22,101.00 477.22,101.00
             477.22,101.00 477.22,111.00 477.22,111.00
             477.22,111.00 477.22,121.00 477.22,121.00
             477.22,121.00 477.22,131.00 477.22,131.00
             477.22,131.00 477.22,141.00 477.22,141.00
             477.22,141.00 477.22,151.00 477.22,151.00
             477.22,151.00 477.22,161.00 477.22,161.00
             477.22,161.00 477.22,171.00 477.22,171.00
             476.90,179.78 479.22,195.80 473.36,202.79
             467.09,210.27 452.85,209.00 444.00,209.00
             444.00,209.00 444.00,85.00 444.00,85.00
             444.00,85.00 426.00,85.00 426.00,85.00
             426.00,85.00 426.00,209.00 426.00,209.00
             414.34,209.00 398.57,210.98 394.06,197.00
             393.11,194.07 393.04,192.02 393.00,189.00
             393.00,189.00 393.00,85.00 393.00,85.00
             393.00,85.00 375.00,85.00 375.00,85.00 Z
           M 180.00,93.46
           C 180.00,93.46 170.00,94.17 170.00,94.17
             156.45,95.46 142.88,98.20 130.00,102.69
             115.97,107.59 118.97,108.22 112.00,111.66
             112.00,111.66 89.00,123.95 89.00,123.95
             63.07,140.76 39.83,171.33 28.45,200.00
             0.87,269.49 22.87,349.73 82.00,395.50
             98.00,407.88 114.64,417.14 134.00,423.19
             147.10,427.28 162.24,430.84 176.00,431.00
             176.00,431.00 195.00,431.00 195.00,431.00
             214.86,430.97 245.61,422.17 263.00,412.69
             294.79,395.34 320.15,370.30 336.74,338.00
             344.73,322.45 353.79,293.44 354.00,276.00
             354.00,276.00 354.68,262.00 354.68,262.00
             354.68,262.00 352.56,236.00 352.56,236.00
             346.16,195.41 324.04,157.15 292.00,131.40
             275.84,118.41 258.72,108.72 239.00,102.26
             220.41,96.16 199.64,92.40 180.00,93.46 Z
           M 183.00,111.28
           C 194.12,110.28 219.03,114.43 230.00,117.81
             255.65,125.71 278.51,139.23 296.91,159.00
             334.53,199.43 346.41,261.10 328.31,313.00
             318.49,341.15 300.30,367.13 276.00,384.57
             270.32,388.65 264.13,391.96 258.00,395.30
             251.40,398.90 241.11,403.71 234.00,405.97
             211.41,413.16 197.11,413.27 174.00,413.00
             161.43,412.85 139.66,407.31 128.00,402.42
             107.31,393.75 88.78,381.28 73.44,364.83
             51.83,341.67 35.05,302.94 35.00,271.00
             35.00,271.00 35.00,252.00 35.00,252.00
             35.03,231.67 44.57,203.74 54.31,186.00
             57.24,180.67 60.98,175.85 64.63,171.00
             84.32,144.79 112.35,125.52 144.00,116.74
             144.00,116.74 168.00,112.17 168.00,112.17
             168.00,112.17 183.00,111.28 183.00,111.28 Z
           M 171.00,143.22
           C 157.61,145.62 144.14,149.04 132.00,155.26
             110.86,166.09 88.91,187.72 78.27,209.00
             75.05,215.44 72.86,222.13 70.80,229.00
             67.89,238.69 66.02,246.78 66.00,257.00
             66.00,257.00 66.00,267.00 66.00,267.00
             66.63,320.50 109.12,369.01 161.00,379.45
             166.97,380.65 172.88,381.92 179.00,382.00
             200.31,382.25 219.71,379.28 239.00,369.63
             253.25,362.50 266.28,352.00 276.71,340.00
             286.11,329.19 293.40,316.53 298.00,303.00
             306.10,279.22 307.80,255.46 301.24,231.00
             288.58,183.76 241.75,143.46 192.00,143.22
             192.00,143.22 171.00,143.22 171.00,143.22 Z
           M 174.00,161.28
           C 193.40,159.48 214.52,162.15 232.00,171.13
             263.29,187.19 286.58,220.15 287.00,256.00
             287.28,280.49 284.50,297.93 270.91,319.00
             259.34,336.94 246.51,345.84 228.00,355.36
             213.33,362.91 196.16,364.19 180.00,364.00
             148.48,363.63 118.27,345.53 100.62,320.00
             96.44,313.95 92.53,304.93 89.95,298.00
             86.98,290.01 84.10,278.52 84.00,270.00
             83.85,257.23 84.34,242.17 88.54,230.00
             99.21,199.13 123.41,174.25 155.00,164.77
             160.44,163.14 168.28,162.12 174.00,161.28 Z" />
</svg>
